<svg width="653" height="550" viewBox="0 0 653 550" fill="none" xmlns="http://www.w3.org/2000/svg">
<path d="M625.656 294.617L404.272 150.04C402.682 149.009 400.877 148.466 399.04 148.466C397.203 148.466 395.399 149.009 393.808 150.04L62.7696 362.798C61.1721 363.828 59.8448 365.312 58.9217 367.102C57.9987 368.892 57.5126 370.923 57.5126 372.992C57.5126 375.06 57.9987 377.092 58.9217 378.881C59.8448 380.671 61.1721 382.156 62.7696 383.185L274.472 520.447C279.667 523.814 285.559 525.587 291.556 525.587C297.554 525.587 303.446 523.814 308.64 520.447L625.623 314.967C627.215 313.938 628.537 312.457 629.458 310.673C630.378 308.889 630.865 306.864 630.868 304.802C630.871 302.74 630.392 300.713 629.477 298.926C628.562 297.138 627.244 295.652 625.656 294.617Z" fill="#AFDBBD"/>
<path style="mix-blend-mode:multiply" opacity="0.63" d="M317.244 497.053C345.078 514.947 303.955 486.713 331.136 505.835C353.551 493.607 551.099 364.797 578.166 342.467C539.198 319.66 550.561 321.585 526.498 304.682L272.987 466.382C288.43 475.475 302.91 487.85 317.244 497.053Z" fill="url(#paint0_linear)"/>
<path d="M260.678 188.833V283.433" stroke="#42210B" stroke-width="2" stroke-miterlimit="10"/>
<path d="M107.843 372.24L266.195 473.825L546.316 290.363L389.645 188.833L107.843 372.24Z" stroke="#42210B" stroke-width="2" stroke-miterlimit="10"/>
<path d="M354.857 95.9567C353.044 93.3717 327.643 76.45 327.643 76.45V76.5967C322.435 70.125 312.771 72.3983 300.217 84.6633C300.217 84.6633 299.776 71.1883 285.41 69.025C271.044 66.8617 266.93 74.195 266.93 74.195C266.93 74.195 262.033 48.6567 233.268 58.245C207.148 66.9533 210.788 96.5067 210.788 96.5067C210.788 96.5067 194.463 91.9233 181.518 112.035C168.572 132.147 169.502 155.668 169.502 155.668C169.502 155.668 142.028 166.833 138.599 194.737C138.303 197.169 138.123 199.616 138.061 202.07V202.785C137.963 208.802 138.445 214.814 139.497 220.715C139.76 222.409 140.353 224.017 141.233 225.425C142.114 226.832 143.26 228.003 144.591 228.855L173.6 247.445C174.494 239.347 173.475 231.128 170.645 223.612L314.305 129.965C314.305 129.965 325.292 119.112 329.912 104.738L340.964 101.53C340.964 101.53 356.669 98.56 354.857 95.9567Z" fill="#68E1FD"/>
<path opacity="0.15" d="M354.857 95.9567C353.044 93.3717 327.643 76.45 327.643 76.45V76.5967C322.435 70.125 312.771 72.3983 300.217 84.6633C300.217 84.6633 299.776 71.1883 285.41 69.025C271.044 66.8617 266.93 74.195 266.93 74.195C266.93 74.195 262.033 48.6567 233.268 58.245C207.148 66.9533 210.788 96.5067 210.788 96.5067C210.788 96.5067 194.463 91.9233 181.518 112.035C168.572 132.147 169.502 155.668 169.502 155.668C169.502 155.668 142.028 166.833 138.599 194.737C138.303 197.169 138.123 199.616 138.061 202.07V202.785C137.963 208.802 138.445 214.814 139.497 220.715C139.76 222.409 140.353 224.017 141.233 225.425C142.114 226.832 143.26 228.003 144.591 228.855L173.6 247.445C174.494 239.347 173.475 231.128 170.645 223.612L314.305 129.965C314.305 129.965 325.292 119.112 329.912 104.738L340.964 101.53C340.964 101.53 356.669 98.56 354.857 95.9567Z" fill="black"/>
<path d="M189.37 249.572L342.107 149.985C342.107 149.985 360.783 131.56 359.672 110.88C358.562 90.2 346.335 86.8633 328.051 104.738C328.051 104.738 327.675 87.4133 313.244 89.1C298.813 90.7867 293.344 101.383 293.344 101.383C293.344 101.383 296.217 70.5833 267.387 80.1717C259.987 82.5041 253.34 87.1762 248.237 93.6314C243.134 100.087 239.791 108.053 238.606 116.582C238.606 116.582 222.281 111.998 209.336 132.11C196.39 152.222 197.32 175.743 197.32 175.743C197.32 175.743 169.96 186.872 166.482 214.793C163.005 242.715 174.922 255.292 189.37 249.572Z" fill="#68E1FD"/>
<path d="M423.356 337.15L452.741 353.008C453.844 353.607 454.781 354.531 455.453 355.682C456.124 356.832 456.504 358.166 456.553 359.541C456.602 360.915 456.317 362.279 455.729 363.485C455.141 364.692 454.272 365.697 453.215 366.392L383.637 411.968C382.132 412.954 380.346 413.249 378.651 412.792C376.957 412.334 375.486 411.159 374.544 409.512L357.648 379.995" fill="#606060"/>
<path d="M263.698 260.828L497.749 109.395C499.354 108.356 501.174 107.81 503.027 107.811C504.879 107.812 506.699 108.36 508.303 109.4C509.907 110.44 511.24 111.936 512.167 113.737C513.094 115.538 513.583 117.581 513.584 119.662V277.2C513.585 278.932 513.179 280.633 512.408 282.133C511.637 283.632 510.528 284.878 509.193 285.743L259.714 447.443C258.854 447.999 257.879 448.291 256.886 448.29C255.894 448.29 254.919 447.996 254.059 447.439C253.2 446.882 252.485 446.081 251.988 445.117C251.491 444.152 251.228 443.058 251.225 441.943V285.065C251.226 280.151 252.379 275.324 254.568 271.069C256.758 266.814 259.907 263.282 263.698 260.828Z" fill="#68E1FD"/>
<path d="M497.717 121.293L270.799 267.96C268.379 269.527 266.368 271.782 264.97 274.498C263.572 277.214 262.834 280.296 262.833 283.433V401.5C262.834 402.63 263.099 403.74 263.603 404.719C264.106 405.698 264.829 406.511 265.701 407.078C266.572 407.644 267.56 407.943 268.566 407.946C269.573 407.948 270.562 407.654 271.436 407.092L502.81 257.95C503.671 257.394 504.387 256.592 504.886 255.627C505.385 254.662 505.648 253.566 505.651 252.45V126.5C505.646 125.458 505.399 124.436 504.935 123.534C504.472 122.632 503.806 121.881 503.006 121.356C502.205 120.83 501.296 120.548 500.368 120.537C499.441 120.526 498.527 120.787 497.717 121.293Z" fill="#003A7F"/>
<path d="M408.118 338.816C408.706 335.386 407.015 332.136 404.342 331.558C401.668 330.98 399.023 333.292 398.435 336.722C397.847 340.152 399.538 343.402 402.211 343.98C404.885 344.558 407.53 342.246 408.118 338.816Z" fill="#AB643C"/>
<path d="M443.191 181.72V282.902" stroke="#29ABE2" stroke-miterlimit="10"/>
<path d="M420.81 197.45V298.613" stroke="#29ABE2" stroke-miterlimit="10"/>
<path d="M385.841 220.807V321.97" stroke="#29ABE2" stroke-miterlimit="10"/>
<path d="M360.57 236.207V337.388" stroke="#29ABE2" stroke-miterlimit="10"/>
<path d="M337.944 252.652V353.833" stroke="#29ABE2" stroke-miterlimit="10"/>
<path d="M441.183 267.813C441.183 267.813 435.453 236.39 423.976 242.147C411.798 248.178 422.883 274.083 409.676 281.802C396.893 289.263 400.599 234.612 385.809 241.065C372.602 246.822 377.532 268.895 377.516 280.188C377.516 285.395 379.148 304.718 370.055 307.688C354.236 312.858 360.799 259.673 340.425 271.755" stroke="white" stroke-miterlimit="10"/>
<path d="M441.183 271.37C442.554 271.37 443.664 269.868 443.664 268.015C443.664 266.162 442.554 264.66 441.183 264.66C439.813 264.66 438.702 266.162 438.702 268.015C438.702 269.868 439.813 271.37 441.183 271.37Z" fill="white"/>
<path d="M340.425 275.752C341.796 275.752 342.907 274.25 342.907 272.397C342.907 270.544 341.796 269.042 340.425 269.042C339.055 269.042 337.944 270.544 337.944 272.397C337.944 274.25 339.055 275.752 340.425 275.752Z" fill="white"/>
<path d="M396.91 256.007C398.28 256.007 399.391 254.505 399.391 252.652C399.391 250.799 398.28 249.297 396.91 249.297C395.539 249.297 394.428 250.799 394.428 252.652C394.428 254.505 395.539 256.007 396.91 256.007Z" fill="white"/>
<path d="M377.434 279.107C378.804 279.107 379.915 277.605 379.915 275.752C379.915 273.899 378.804 272.397 377.434 272.397C376.064 272.397 374.953 273.899 374.953 275.752C374.953 277.605 376.064 279.107 377.434 279.107Z" fill="white"/>
<defs>
<linearGradient id="paint0_linear" x1="435.388" y1="422.785" x2="407.966" y2="382.094" gradientUnits="userSpaceOnUse">
<stop stop-color="white" stop-opacity="0"/>
<stop offset="0.99" stop-color="#2E7C5F"/>
</linearGradient>
</defs>
</svg>
