<svg width="123" height="41" viewBox="0 0 123 41" fill="none" xmlns="http://www.w3.org/2000/svg">
<g filter="url(#filter0_d)">
<path d="M13.735 0.454998C18.415 0.454998 22 1.295 24.49 2.975C26.98 4.625 28.225 7.205 28.225 10.715C28.225 12.905 27.715 14.69 26.695 16.07C25.705 17.42 24.265 18.485 22.375 19.265C23.005 20.045 23.665 20.945 24.355 21.965C25.045 22.955 25.72 24.005 26.38 25.115C27.07 26.195 27.73 27.335 28.36 28.535C28.99 29.705 29.575 30.86 30.115 32H22.24C21.67 30.98 21.085 29.945 20.485 28.895C19.915 27.845 19.315 26.825 18.685 25.835C18.085 24.845 17.485 23.915 16.885 23.045C16.285 22.145 15.685 21.335 15.085 20.615H11.62V32H4.6V1.265C6.13 0.964999 7.705 0.754999 9.325 0.634999C10.975 0.514999 12.445 0.454998 13.735 0.454998ZM14.14 6.44C13.63 6.44 13.165 6.455 12.745 6.485C12.355 6.515 11.98 6.545 11.62 6.575V15.035H13.6C16.24 15.035 18.13 14.705 19.27 14.045C20.41 13.385 20.98 12.26 20.98 10.67C20.98 9.14 20.395 8.06 19.225 7.43C18.085 6.77 16.39 6.44 14.14 6.44ZM48.0436 32.63C42.9736 32.63 39.1036 31.22 36.4336 28.4C33.7936 25.58 32.4736 21.575 32.4736 16.385C32.4736 13.805 32.8786 11.51 33.6886 9.5C34.4986 7.46 35.6086 5.75 37.0186 4.37C38.4286 2.96 40.1086 1.895 42.0586 1.175C44.0086 0.454998 46.1236 0.0949977 48.4036 0.0949977C49.7236 0.0949977 50.9236 0.199998 52.0036 0.409999C53.0836 0.589998 54.0286 0.814998 54.8386 1.085C55.6486 1.325 56.3236 1.58 56.8636 1.85C57.4036 2.12 57.7936 2.33 58.0336 2.48L56.0086 8.15C55.0486 7.64 53.9236 7.205 52.6336 6.845C51.3736 6.485 49.9336 6.305 48.3136 6.305C47.2336 6.305 46.1686 6.485 45.1186 6.845C44.0986 7.205 43.1836 7.79 42.3736 8.6C41.5936 9.38 40.9636 10.4 40.4836 11.66C40.0036 12.92 39.7636 14.45 39.7636 16.25C39.7636 17.69 39.9136 19.04 40.2136 20.3C40.5436 21.53 41.0536 22.595 41.7436 23.495C42.4636 24.395 43.3936 25.115 44.5336 25.655C45.6736 26.165 47.0536 26.42 48.6736 26.42C49.6936 26.42 50.6086 26.36 51.4186 26.24C52.2286 26.12 52.9486 25.985 53.5786 25.835C54.2086 25.655 54.7636 25.46 55.2436 25.25C55.7236 25.04 56.1586 24.845 56.5486 24.665L58.4836 30.29C57.4936 30.89 56.0986 31.43 54.2986 31.91C52.4986 32.39 50.4136 32.63 48.0436 32.63ZM72.2554 26.645C73.2454 26.645 74.0554 26.57 74.6854 26.42C75.3454 26.24 75.8704 26.015 76.2604 25.745C76.6504 25.445 76.9204 25.1 77.0704 24.71C77.2204 24.32 77.2954 23.885 77.2954 23.405C77.2954 22.385 76.8154 21.545 75.8554 20.885C74.8954 20.195 73.2454 19.46 70.9054 18.68C69.8854 18.32 68.8654 17.915 67.8454 17.465C66.8254 16.985 65.9104 16.4 65.1004 15.71C64.2904 14.99 63.6304 14.135 63.1204 13.145C62.6104 12.125 62.3554 10.895 62.3554 9.455C62.3554 8.015 62.6254 6.725 63.1654 5.585C63.7054 4.415 64.4704 3.425 65.4604 2.615C66.4504 1.805 67.6504 1.19 69.0604 0.77C70.4704 0.319998 72.0604 0.0949977 73.8304 0.0949977C75.9304 0.0949977 77.7454 0.319998 79.2754 0.77C80.8054 1.22 82.0654 1.715 83.0554 2.255L81.0304 7.79C80.1604 7.34 79.1854 6.95 78.1054 6.62C77.0554 6.26 75.7804 6.08 74.2804 6.08C72.6004 6.08 71.3854 6.32 70.6354 6.8C69.9154 7.25 69.5554 7.955 69.5554 8.915C69.5554 9.485 69.6904 9.965 69.9604 10.355C70.2304 10.745 70.6054 11.105 71.0854 11.435C71.5954 11.735 72.1654 12.02 72.7954 12.29C73.4554 12.53 74.1754 12.785 74.9554 13.055C76.5754 13.655 77.9854 14.255 79.1854 14.855C80.3854 15.425 81.3754 16.1 82.1554 16.88C82.9654 17.66 83.5654 18.575 83.9554 19.625C84.3454 20.675 84.5404 21.95 84.5404 23.45C84.5404 26.36 83.5204 28.625 81.4804 30.245C79.4404 31.835 76.3654 32.63 72.2554 32.63C70.8754 32.63 69.6304 32.54 68.5204 32.36C67.4104 32.21 66.4204 32.015 65.5504 31.775C64.7104 31.535 63.9754 31.28 63.3454 31.01C62.7454 30.74 62.2354 30.485 61.8154 30.245L63.7954 24.665C64.7254 25.175 65.8654 25.64 67.2154 26.06C68.5954 26.45 70.2754 26.645 72.2554 26.645ZM110.822 32C110.492 30.92 110.117 29.81 109.697 28.67C109.307 27.53 108.917 26.39 108.527 25.25H96.3768C95.9868 26.39 95.5818 27.53 95.1618 28.67C94.7718 29.81 94.4118 30.92 94.0818 32H86.7918C87.9618 28.64 89.0718 25.535 90.1218 22.685C91.1718 19.835 92.1918 17.15 93.1818 14.63C94.2018 12.11 95.1918 9.725 96.1518 7.475C97.1418 5.195 98.1618 2.975 99.2118 0.814999H105.917C106.937 2.975 107.942 5.195 108.932 7.475C109.922 9.725 110.912 12.11 111.902 14.63C112.922 17.15 113.957 19.835 115.007 22.685C116.057 25.535 117.167 28.64 118.337 32H110.822ZM102.407 7.88C102.257 8.33 102.032 8.945 101.732 9.725C101.432 10.505 101.087 11.405 100.697 12.425C100.307 13.445 99.8718 14.57 99.3918 15.8C98.9418 17.03 98.4768 18.32 97.9968 19.67H106.862C106.382 18.32 105.917 17.03 105.467 15.8C105.017 14.57 104.582 13.445 104.162 12.425C103.772 11.405 103.427 10.505 103.127 9.725C102.827 8.945 102.587 8.33 102.407 7.88Z" fill="#333951"/>
</g>
<defs>
<filter id="filter0_d" x="0.600006" y="0.0949707" width="121.737" height="40.535" filterUnits="userSpaceOnUse" color-interpolation-filters="sRGB">
<feFlood flood-opacity="0" result="BackgroundImageFix"/>
<feColorMatrix in="SourceAlpha" type="matrix" values="0 0 0 0 0 0 0 0 0 0 0 0 0 0 0 0 0 0 127 0"/>
<feOffset dy="4"/>
<feGaussianBlur stdDeviation="2"/>
<feColorMatrix type="matrix" values="0 0 0 0 0 0 0 0 0 0 0 0 0 0 0 0 0 0 0.25 0"/>
<feBlend mode="normal" in2="BackgroundImageFix" result="effect1_dropShadow"/>
<feBlend mode="normal" in="SourceGraphic" in2="effect1_dropShadow" result="shape"/>
</filter>
</defs>
</svg>
